HIERARCHY
ROOT Hips
{
	OFFSET 0.00 0.00 0.00
	CHANNELS 6 Xposition Yposition Zposition Xrotation Yrotation Zrotation
	JOINT Spine
	{
		OFFSET 0.00000 7.50895 0.00000
		CHANNELS 3 Xrotation Yrotation Zrotation
		JOINT Head
		{
			OFFSET 0.00000 13.86115 0.00000
			CHANNELS 3 Xrotation Yrotation Zrotation
			End Site
			{
				OFFSET 0.00000 4.52755 0.00000
			}
		}
		JOINT LeftShoulder
		{
			OFFSET 0.00000 8.20478 0.00000
			CHANNELS 3 Xrotation Yrotation Zrotation
			JOINT LeftArm
			{
				OFFSET 6.63596 0.00000 0.00000
				CHANNELS 3 Xrotation Yrotation Zrotation
				JOINT LeftForeArm
				{
					OFFSET 10.27422 0.00000 0.00000
					CHANNELS 3 Yrotation Zrotation Xrotation
					JOINT LeftHand
					{
						OFFSET 8.52215 0.00000 0.00000
						CHANNELS 3 Xrotation Yrotation Zrotation
						JOINT LeftHandThumb1
						{
							OFFSET 0.00000 0.00000 0.00000
							CHANNELS 3 Xrotation Zrotation Yrotation
							End Site
							{
								OFFSET 0.00000 0.00000 3.93700
							}
						}
						End Site
						{
							OFFSET 3.93700 0.00000 0.00000
						}
					}
				}
			}
		}
		JOINT RightShoulder
		{
			OFFSET 0.00000 8.20478 0.00000
			CHANNELS 3 Xrotation Yrotation Zrotation
			JOINT RightArm
			{
				OFFSET -6.63596 0.00000 0.00000
				CHANNELS 3 Xrotation Yrotation Zrotation
				JOINT RightForeArm
				{
					OFFSET -10.27422 0.00000 0.00000
					CHANNELS 3 Yrotation Zrotation Xrotation
					JOINT RightHand
					{
						OFFSET -8.52215 0.00000 0.00000
						CHANNELS 3 Xrotation Yrotation Zrotation
						JOINT RightHandThumb1
						{
							OFFSET 0.00000 0.00000 0.00000
							CHANNELS 3 Xrotation Zrotation Yrotation
							End Site
							{
								OFFSET 0.00000 0.00000 3.93700
							}
						}
						End Site
						{
							OFFSET -3.93700 0.00000 0.00000
						}
					}
				}
			}
		}
	}
	JOINT LeftUpLeg
	{
		OFFSET 3.00056 0.00000 0.00000
		CHANNELS 3 Xrotation Yrotation Zrotation
		JOINT LeftLeg
		{
			OFFSET 0.00000 -16.49085 0.00000
			CHANNELS 3 Xrotation Yrotation Zrotation
			JOINT LeftFoot
			{
				OFFSET 0.00000 -14.55658 0.00000
				CHANNELS 3 Xrotation Yrotation Zrotation
				JOINT LeftToeBase
				{
					OFFSET 0.00000 -1.25038 4.66650
					CHANNELS 3 Xrotation Yrotation Zrotation
					End Site
					{
						OFFSET 0.00000 0.00000 2.95275
					}
				}
			}
		}
	}
	JOINT RightUpLeg
	{
		OFFSET -3.00056 0.00000 0.00000
		CHANNELS 3 Xrotation Yrotation Zrotation
		JOINT RightLeg
		{
			OFFSET 0.00000 -16.49085 0.00000
			CHANNELS 3 Xrotation Yrotation Zrotation
			JOINT RightFoot
			{
				OFFSET 0.00000 -14.55658 0.00000
				CHANNELS 3 Xrotation Yrotation Zrotation
				JOINT RightToeBase
				{
					OFFSET 0.00000 -1.25038 4.66650
					CHANNELS 3 Xrotation Yrotation Zrotation
					End Site
					{
						OFFSET 0.00000 0.00000 2.95275
					}
				}
			}
		}
	}
}
MOTION
Frames: 18
Frame Time: 0.008333
 -4.6136 33.0067 -3.3000 5.4264 8.3744 -1.8836 -12.8362 19.3965 -2.1180 22.4144 -23.5533 12.5464 20.3795 15.9163 6.9793 -11.1459 -37.1236 -70.4952 -24.6002 -0.0000 0.0042 3.6913 24.0413 -8.9987 33.1476 -0.0000 26.2537 -83.5426 56.1272 -26.9072 -17.3879 -35.5997 50.1416 123.0167 0.0000 -60.3189 -2.1457 6.3141 18.8130 32.8623 0.0000 -24.3270 -1.2804 -0.1608 5.5736 -0.4733 0.0000 0.0000 -5.9204 9.8555 -16.4112 10.2638 -0.0000 0.0000 -1.4983 -9.8612 -0.9462 3.3964 0.0000 -0.0000 -8.2889 -2.5863 -17.2421 1.4439 0.0000 0.0000
 -4.6192 33.0045 -3.3035 5.4062 8.3066 -1.8803 -12.7344 19.3261 -2.1633 22.5420 -23.5947 12.6648 20.4399 15.9835 6.9441 -11.0449 -37.1854 -70.3459 -24.4904 -0.0000 -0.1170 3.6066 24.2953 -8.7096 33.1476 -0.0000 26.2537 -83.5183 56.1411 -26.9575 -17.1024 -35.4698 50.2632 123.0243 0.0000 -60.1064 -2.1982 6.5580 18.5767 32.8623 0.0000 -24.3270 -1.2609 -0.1449 5.5856 -0.4636 0.0000 0.0000 -5.9474 9.9016 -16.4127 10.2462 0.0000 0.0000 -1.4956 -9.8030 -0.9391 3.4068 0.0000 -0.0000 -8.3202 -2.5734 -17.2552 1.4878 0.0000 0.0000
 -4.6250 33.0019 -3.3070 5.3829 8.2368 -1.8765 -12.6317 19.2782 -2.2094 22.6831 -23.6703 12.7888 20.4989 16.0477 6.9198 -10.9711 -37.2611 -70.2191 -24.3462 -0.0000 -0.2182 3.6294 24.2375 -8.7835 33.1476 -0.0000 26.2537 -83.4070 56.1211 -27.0738 -16.9074 -35.3644 50.3786 123.0502 0.0000 -59.8546 -2.1609 6.4651 18.5265 32.8623 0.0000 -24.3270 -1.2356 -0.1249 5.5971 -0.4633 -0.0000 0.0000 -5.9776 9.9524 -16.4076 10.2994 -0.0000 0.0000 -1.4895 -9.7603 -0.9299 3.4126 -0.0000 -0.0000 -8.3379 -2.5442 -17.2681 1.4629 0.0000 0.0000
 -4.6308 32.9992 -3.3112 5.3646 8.1679 -1.8669 -12.5282 19.2160 -2.2750 22.8242 -23.6678 12.9301 20.5222 16.1188 6.9104 -10.8764 -37.3014 -70.1013 -24.2058 -0.0000 -0.2311 3.6189 24.2745 -8.7459 33.1476 -0.0000 26.2537 -83.2351 56.0602 -27.2231 -16.7451 -35.2007 50.4885 123.0696 0.0000 -59.5242 -2.1782 6.5673 18.3952 32.8623 0.0000 -24.3270 -1.2169 -0.1201 5.6022 -0.4588 -0.0000 -0.0000 -5.9983 10.0174 -16.4086 10.2546 0.0000 -0.0000 -1.4940 -9.7347 -0.9298 3.4263 -0.0000 0.0000 -8.3672 -2.4827 -17.2902 1.4626 -0.0000 0.0000
 -4.6372 32.9965 -3.3158 5.3469 8.0940 -1.8657 -12.4201 19.1685 -2.3384 22.9610 -23.6819 13.0743 20.5463 16.1852 6.9102 -10.8268 -37.3087 -70.0249 -24.0752 -0.0000 -0.3104 3.6528 24.3263 -8.8094 33.1476 -0.0000 26.2537 -83.1288 56.0325 -27.3213 -16.5378 -35.0831 50.5400 123.0925 0.0000 -59.2844 -2.1352 6.4283 18.4182 32.8623 0.0000 -24.3270 -1.1943 -0.1302 5.6168 -0.4569 0.0000 -0.0000 -6.0364 10.0952 -16.3876 10.3333 -0.0000 0.0000 -1.5050 -9.7038 -0.9233 3.4504 -0.0000 -0.0000 -8.4030 -2.4328 -17.2862 1.4777 -0.0000 0.0000
 -4.6415 32.9944 -3.3209 5.3263 8.0104 -1.8563 -12.3020 19.1234 -2.4032 23.0960 -23.7451 13.2204 20.7797 16.2792 6.8270 -10.9632 -37.3102 -69.9234 -23.9620 -0.0000 -0.2822 3.8084 24.2431 -9.2087 33.1476 -0.0000 26.2537 -83.0609 56.0108 -27.3948 -16.2756 -34.9139 50.6287 123.1116 0.0000 -59.0420 -2.1391 6.4505 18.3904 32.8623 0.0000 -24.3270 -1.1692 -0.1313 5.6185 -0.4546 0.0000 -0.0000 -6.0557 10.1790 -16.3852 10.3115 0.0000 -0.0000 -1.5190 -9.6530 -0.9231 3.4819 0.0000 0.0000 -8.4288 -2.4014 -17.3412 1.5088 0.0000 0.0000
 -4.6482 32.9924 -3.3259 5.3032 7.9259 -1.8512 -12.1812 19.0777 -2.4567 23.2096 -23.7949 13.3274 20.6238 16.3114 6.8627 -10.7186 -37.3273 -69.8382 -23.8481 -0.0000 -0.3132 3.7883 24.2401 -9.1618 33.1476 -0.0000 26.2537 -82.8668 55.9792 -27.5590 -16.0855 -34.7403 50.6766 123.1371 0.0000 -58.8744 -2.1377 6.4391 18.4094 32.8623 0.0000 -24.3270 -1.1488 -0.0954 5.6307 -0.4468 -0.0000 0.0000 -6.0803 10.2189 -16.3792 10.3258 0.0000 0.0000 -1.5274 -9.6080 -0.9158 3.5028 0.0000 0.0000 -8.4525 -2.3538 -17.3667 1.5213 -0.0000 -0.0000
 -4.6544 32.9902 -3.3323 5.2884 7.8443 -1.8453 -12.0532 19.0509 -2.5454 23.3177 -23.8276 13.5261 20.7717 16.3413 6.8585 -10.7888 -37.2706 -69.8026 -23.7785 -0.0000 -0.4001 3.7946 24.1533 -9.2071 33.1476 -0.0000 26.2537 -82.6136 55.8420 -27.7860 -15.9739 -34.4964 50.7233 123.1425 0.0000 -58.7995 -2.1186 6.3682 18.4443 32.8623 0.0000 -24.3270 -1.1369 -0.1002 5.6373 -0.4372 0.0000 0.0000 -6.1012 10.3017 -16.3529 10.2878 -0.0000 0.0000 -1.5097 -9.4589 -0.9070 3.4590 0.0000 0.0000 -8.4435 -2.4132 -17.3438 1.4864 0.0000 0.0000
 -4.6615 32.9887 -3.3386 5.2667 7.7636 -1.8427 -11.9104 19.0065 -2.6192 23.4089 -23.8876 13.6411 20.8700 16.4212 6.8262 -10.8330 -37.2751 -69.7443 -23.7031 -0.0000 -0.4832 3.7247 24.3864 -8.9601 33.1476 -0.0000 26.2537 -82.4629 55.7695 -27.9584 -15.7785 -34.2888 50.8340 123.1543 0.0000 -58.7143 -2.0938 6.2812 18.4781 32.8623 0.0000 -24.3270 -1.1204 -0.0755 5.6532 -0.4269 0.0000 0.0000 -6.1240 10.3558 -16.3783 10.3695 0.0000 -0.0000 -1.5245 -9.3950 -0.8985 3.4937 0.0000 -0.0000 -8.4755 -2.3701 -17.3683 1.5433 -0.0000 -0.0000
 -4.6685 32.9872 -3.3463 5.2521 7.6758 -1.8390 -11.7823 18.9681 -2.6907 23.4984 -23.9295 13.7725 20.8996 16.4831 6.8245 -10.7838 -37.3246 -69.6777 -23.6391 -0.0000 -0.6144 3.6541 24.4183 -8.7819 33.1476 -0.0000 26.2537 -82.1502 55.6461 -28.2233 -15.6742 -34.0470 50.9159 123.1727 0.0000 -58.6471 -2.1136 6.3474 18.4596 32.8623 0.0000 -24.3270 -1.1179 -0.0363 5.6638 -0.4104 0.0000 0.0000 -6.1367 10.4049 -16.3618 10.3040 0.0000 -0.0000 -1.5530 -9.3152 -0.8925 3.5322 0.0000 0.0000 -8.5044 -2.3564 -17.3997 1.5478 -0.0000 -0.0000
 -4.6733 32.9861 -3.3537 5.2292 7.5908 -1.8274 -11.6383 18.8915 -2.7649 23.5733 -23.9673 13.8710 20.9124 16.5474 6.8277 -10.7140 -37.3488 -69.6388 -23.5956 -0.0000 -0.7322 3.6603 24.3884 -8.8066 33.1476 -0.0000 26.2537 -82.0045 55.5609 -28.3512 -15.5276 -33.8250 51.0041 123.1942 0.0000 -58.5569 -2.1207 6.3865 18.4125 32.8623 0.0000 -24.3270 -1.1041 -0.0124 5.6610 -0.3968 -0.0000 0.0000 -6.1571 10.4648 -16.3310 10.2796 0.0000 0.0000 -1.5799 -9.2597 -0.8980 3.5832 0.0000 0.0000 -8.5255 -2.3301 -17.3983 1.4769 0.0000 -0.0000
 -4.6798 32.9851 -3.3624 5.2097 7.5066 -1.8278 -11.4832 18.8402 -2.8526 23.6542 -24.0159 14.0643 20.9744 16.5453 6.8695 -10.7177 -37.2187 -69.6693 -23.6276 -0.0000 -0.7194 3.6482 24.4078 -8.7713 33.1476 -0.0000 26.2537 -81.9410 55.4826 -28.4335 -15.3196 -33.6230 51.0853 123.2271 0.0000 -58.3849 -2.1119 6.3617 18.4075 32.8623 0.0000 -24.3270 -1.1075 0.0417 5.6740 -0.3650 -0.0000 0.0000 -6.1832 10.5012 -16.3187 10.3155 -0.0000 0.0000 -1.6003 -9.1806 -0.8843 3.6116 0.0000 -0.0000 -8.5307 -2.3222 -17.4184 1.5129 -0.0000 -0.0000
 -4.6863 32.9844 -3.3711 5.1947 7.4307 -1.8277 -11.3522 18.7729 -2.9149 23.7334 -24.0154 14.1837 20.9862 16.5446 6.9030 -10.6353 -37.2180 -69.6604 -23.6207 -0.0000 -0.7379 3.5823 24.4158 -8.6123 33.1476 -0.0000 26.2537 -81.7630 55.4295 -28.5684 -15.1754 -33.4265 51.1332 123.2847 0.0000 -58.1745 -2.1089 6.3751 18.3473 32.8623 0.0000 -24.3270 -1.1163 0.0832 5.6870 -0.3334 -0.0000 0.0000 -6.1995 10.5292 -16.3074 10.3152 0.0000 -0.0000 -1.6250 -9.1142 -0.8753 3.6446 0.0000 0.0000 -8.5421 -2.3050 -17.4257 1.5037 -0.0000 -0.0000
 -4.6930 32.9835 -3.3791 5.1830 7.3514 -1.8324 -11.2271 18.7206 -2.9646 23.8095 -24.0328 14.2700 21.0156 16.5965 6.8992 -10.6124 -37.2959 -69.6393 -23.5901 -0.0000 -0.7732 3.5600 24.3783 -8.5716 33.1476 -0.0000 26.2537 -81.5951 55.4106 -28.7473 -15.0009 -33.3109 51.2127 123.3436 0.0000 -58.1487 -2.0905 6.3381 18.2965 32.8623 0.0000 -24.3270 -1.1176 0.1269 5.7021 -0.3207 -0.0000 0.0000 -6.2166 10.5803 -16.3028 10.3500 -0.0000 0.0000 -1.6541 -9.0638 -0.8595 3.6794 -0.0000 -0.0000 -8.5547 -2.2724 -17.4575 1.5631 0.0000 -0.0000
 -4.7000 32.9834 -3.3859 5.1694 7.2721 -1.8413 -11.1139 18.6527 -3.0139 23.8809 -24.0376 14.3432 21.0666 16.6770 6.8894 -10.6123 -37.4206 -69.6142 -23.5546 -0.0000 -0.8150 3.5876 24.4039 -8.6287 33.1476 -0.0000 26.2537 -81.5100 55.3941 -28.8378 -14.8068 -33.1969 51.3093 123.3942 0.0000 -58.0716 -2.0927 6.3914 18.1721 32.8623 0.0000 -24.3270 -1.1183 0.1874 5.7229 -0.3041 -0.0000 -0.0000 -6.2266 10.6030 -16.2967 10.3423 0.0000 -0.0000 -1.7022 -9.1008 -0.8451 3.7590 -0.0000 0.0000 -8.5646 -2.1574 -17.4554 1.5357 -0.0000 0.0000
 -4.7067 32.9831 -3.3950 5.1612 7.2052 -1.8555 -10.9868 18.5628 -3.0760 23.9237 -24.0066 14.4779 21.1711 16.6747 6.9038 -10.6222 -37.3679 -69.6268 -23.6345 -0.0000 -0.7465 3.5988 24.4458 -8.6417 33.1476 -0.0000 26.2537 -81.5039 55.3613 -28.8618 -14.6083 -33.0654 51.3677 123.4483 0.0000 -57.9857 -2.0944 6.3165 18.3865 32.8623 0.0000 -24.3270 -1.1340 0.2432 5.7487 -0.2803 -0.0000 0.0000 -6.2449 10.6166 -16.2848 10.3556 0.0000 -0.0000 -1.7270 -9.1079 -0.8210 3.7745 0.0000 0.0000 -8.5582 -2.0903 -17.4572 1.5345 0.0000 0.0000
 -4.7137 32.9822 -3.4037 5.1601 7.1117 -1.8633 -10.8765 18.4872 -3.1297 23.9656 -23.9786 14.5674 21.1667 16.6902 6.9300 -10.5164 -37.4102 -69.6066 -23.6864 -0.0000 -0.7135 3.6835 24.3971 -8.8586 33.1476 -0.0000 26.2537 -81.4571 55.3266 -28.9042 -14.4762 -32.9393 51.4262 123.5072 0.0000 -57.8255 -2.0925 6.3678 18.2337 32.8623 0.0000 -24.3270 -1.1557 0.3367 5.7689 -0.2585 -0.0000 0.0000 -6.2541 10.6207 -16.2972 10.3187 -0.0000 0.0000 -1.7506 -9.0604 -0.8024 3.7703 0.0000 -0.0000 -8.5406 -2.0434 -17.4708 1.5084 -0.0000 -0.0000
 -4.7210 32.9816 -3.4137 5.1670 7.0244 -1.8712 -10.7770 18.4160 -3.1689 24.0132 -23.9512 14.6164 21.1407 16.7524 6.9211 -10.4084 -37.6095 -69.5448 -23.6772 -0.0000 -0.7685 3.7806 24.3057 -9.1207 33.1476 -0.0000 26.2537 -81.2988 55.2648 -29.0378 -14.4288 -32.8167 51.5124 123.5665 0.0000 -57.5904 -2.0909 6.2632 18.5028 32.8623 0.0000 -24.3270 -1.1816 0.4188 5.7876 -0.2443 0.0000 -0.0000 -6.2596 10.6209 -16.2850 10.2962 0.0000 -0.0000 -1.7932 -9.0411 -0.7845 3.7833 -0.0000 0.0000 -8.5333 -1.9740 -17.4898 1.5027 0.0000 -0.0000
